<svg width="24" height="24" viewBox="0 0 24 24" class="adddoc" fill="none" xmlns="http://www.w3.org/2000/svg">
<path d="M18.0025 9.99917V7.82626C18.0025 7.29604 17.7914 6.78683 17.4163 6.41167L14.5871 3.58249C14.2119 3.20734 13.7027 2.99625 13.1725 2.99625H5.9975C4.89204 2.99625 3.99667 3.89162 3.99667 4.99708V19.0029C3.99667 20.1084 4.89204 21.0037 5.9975 21.0037H9.99917" stroke="#FFFFFF" stroke-width="1.5" stroke-linecap="round" stroke-linejoin="round"/>
<path d="M18.0025 7.99833H14.0008C13.4486 7.99833 13.0004 7.55015 13.0004 6.99792V2.99625" stroke="#FFFFFF" stroke-width="1.5" stroke-linecap="round" stroke-linejoin="round"/>
<path d="M16.5019 22.0042C14.0158 22.0042 12 19.9883 12 17.5023C12 15.0163 14.0158 13.0004 16.5019 13.0004C18.9889 13.0004 21.0037 15.0163 21.0037 17.5023C21.0037 19.9883 18.9889 22.0042 16.5019 22.0042" stroke="#FFFFFF" stroke-width="1.5" stroke-linecap="round" stroke-linejoin="round"/>
<path d="M16.5019 15.7065V19.297" stroke="#FFFFFF" stroke-width="1.5" stroke-linecap="round" stroke-linejoin="round"/>
<path d="M18.2976 17.5023H14.7071" stroke="#FFFFFF" stroke-width="1.5" stroke-linecap="round" stroke-linejoin="round"/>
</svg>
